<svg width="20" height="20" viewBox="0 0 20 20" fill="none" xmlns="http://www.w3.org/2000/svg">
<path d="M10 17.5003C14.1421 17.5003 17.5 14.1424 17.5 10.0003C17.5 5.85817 14.1421 2.50031 10 2.50031C5.85786 2.50031 2.5 5.85817 2.5 10.0003C2.5 14.1424 5.85786 17.5003 10 17.5003Z" stroke="#FACF41" stroke-width="1.5" stroke-linecap="round" stroke-linejoin="round"/>
<path d="M7.1875 9.37531C7.70527 9.37531 8.125 8.95557 8.125 8.43781C8.125 7.92004 7.70527 7.50031 7.1875 7.50031C6.66973 7.50031 6.25 7.92004 6.25 8.43781C6.25 8.95557 6.66973 9.37531 7.1875 9.37531Z" fill="#FACF41"/>
<path d="M12.8125 9.37531C13.3303 9.37531 13.75 8.95557 13.75 8.43781C13.75 7.92004 13.3303 7.50031 12.8125 7.50031C12.2947 7.50031 11.875 7.92004 11.875 8.43781C11.875 8.95557 12.2947 9.37531 12.8125 9.37531Z" fill="#FACF41"/>
<path d="M13.25 11.8753C12.9196 12.4445 12.4455 12.917 11.8751 13.2454C11.3048 13.5738 10.6582 13.7467 10 13.7467C9.34184 13.7467 8.69523 13.5738 8.12486 13.2454C7.5545 12.917 7.0804 12.4445 6.75 11.8753" stroke="#FACF41" stroke-width="1.5" stroke-linecap="round" stroke-linejoin="round"/>
</svg>
