<svg width="20" height="20" viewBox="0 0 20 20" fill="none" xmlns="http://www.w3.org/2000/svg">
<path d="M2.5 8.12531H6.25V16.2503H2.5C2.33424 16.2503 2.17527 16.1845 2.05806 16.0672C1.94085 15.95 1.875 15.7911 1.875 15.6253V8.75031C1.875 8.58454 1.94085 8.42557 2.05806 8.30836C2.17527 8.19115 2.33424 8.12531 2.5 8.12531Z" stroke="#26CAFF" stroke-width="1.5" stroke-linecap="round" stroke-linejoin="round"/>
<path d="M6.25 8.12531L9.375 1.87531C10.038 1.87531 10.6739 2.1387 11.1428 2.60754C11.6116 3.07638 11.875 3.71226 11.875 4.37531V6.25031H16.7109C16.8882 6.24987 17.0635 6.28736 17.225 6.36028C17.3866 6.43319 17.5306 6.53983 17.6476 6.67304C17.7645 6.80624 17.8516 6.96292 17.9029 7.13256C17.9543 7.3022 17.9687 7.48087 17.9453 7.65656L17.0078 15.1566C16.9699 15.4576 16.8237 15.7346 16.5966 15.9359C16.3695 16.1371 16.0769 16.2489 15.7734 16.2503H6.25" stroke="#26CAFF" stroke-width="1.5" stroke-linecap="round" stroke-linejoin="round"/>
</svg>
