<svg width="20" height="20" viewBox="0 0 20 20" fill="none" xmlns="http://www.w3.org/2000/svg">
<path d="M10 16.8753C10 16.8753 2.1875 12.5003 2.1875 7.18781C2.1875 6.24866 2.51289 5.33852 3.1083 4.61223C3.70371 3.88595 4.53236 3.38839 5.45328 3.2042C6.37419 3.02002 7.33047 3.16059 8.15943 3.60201C8.98838 4.04342 9.63879 4.7584 10 5.62531C10.3612 4.7584 11.0116 4.04342 11.8406 3.60201C12.6695 3.16059 13.6258 3.02002 14.5467 3.2042C15.4676 3.38839 16.2963 3.88595 16.8917 4.61223C17.4871 5.33852 17.8125 6.24866 17.8125 7.18781C17.8125 12.5003 10 16.8753 10 16.8753Z" stroke="#ED2590" stroke-width="1.5" stroke-linecap="round" stroke-linejoin="round"/>
</svg>
