<svg width="18" height="19" viewBox="0 0 18 19" fill="none" xmlns="http://www.w3.org/2000/svg">
<g id="Star">
<path id="Vector" d="M9.30943 13.9089L12.8532 16.1589C13.3102 16.4471 13.8727 16.0182 13.7391 15.4909L12.7126 11.4549C12.6848 11.3431 12.6892 11.2256 12.7253 11.1162C12.7614 11.0067 12.8276 10.9096 12.9165 10.8362L16.0946 8.18542C16.5094 7.84089 16.2985 7.14479 15.7571 7.10964L11.6087 6.84245C11.4955 6.83586 11.3866 6.79645 11.2955 6.72902C11.2043 6.66159 11.1348 6.56907 11.0954 6.46276L9.5485 2.56745C9.50755 2.45488 9.43295 2.35764 9.33484 2.28892C9.23672 2.22021 9.11984 2.18335 9.00006 2.18335C8.88027 2.18335 8.76339 2.22021 8.66528 2.28892C8.56716 2.35764 8.49257 2.45488 8.45162 2.56745L6.90475 6.46276C6.86532 6.56907 6.79578 6.66159 6.70463 6.72902C6.61348 6.79645 6.50466 6.83586 6.39146 6.84245L2.24303 7.10964C1.70162 7.14479 1.49068 7.84089 1.90553 8.18542L5.08365 10.8362C5.17248 10.9096 5.23875 11.0067 5.27483 11.1162C5.3109 11.2256 5.31532 11.3431 5.28756 11.4549L4.33834 15.1956C4.17662 15.8284 4.85162 16.3417 5.39303 15.9971L8.69068 13.9089C8.78316 13.8501 8.89047 13.8188 9.00006 13.8188C9.10964 13.8188 9.21696 13.8501 9.30943 13.9089Z" stroke="#FACF41" stroke-width="1.5" stroke-linecap="round" stroke-linejoin="round"/>
</g>
</svg>
